<?xml version="1.0" encoding="utf-8"?>
<!-- Generator: Adobe Illustrator 28.0.0, SVG Export Plug-In . SVG Version: 6.00 Build 0)  -->
<svg version="1.1" id="Warstwa_1" xmlns="http://www.w3.org/2000/svg" xmlns:xlink="http://www.w3.org/1999/xlink" x="0px" y="0px"
	 viewBox="0 0 566.93 566.93" style="enable-background:new 0 0 566.93 566.93;" xml:space="preserve">
<style type="text/css">
	.st0{fill:#18223B;}
</style>
<path class="st0" d="M422.49,217.36c-21.87-20.5-54.52-29.13-83.11-19.16c-13.81,4.49-25.88,12.64-37.09,21.8
	c-4.92,3.92-9.72,7.84-14.43,11.81c-2.07,1.89-4.17,3.09-6.61,0.93c-18.93-15.57-37.32-32.94-62.44-37.14
	c-11.46-2.73-23.45-2.01-34.84,0.79c-23.24,5.09-43.44,20.78-55.53,41.08c-3.41,5.93-6.34,12.22-8.25,18.74
	c-2.71,10.02-3.66,20.46-3.65,30.84c0.04,10.28,2.72,20.3,6.17,29.92c4.84,14.1,14.35,26.08,25.45,35.85
	c19.02,17.32,46.35,23.07,71.35,18.85c25.94-4.22,43.68-21.46,63.7-36.66c1.37-0.8,2.86-0.25,4.03,0.67
	c5.12,3.92,10.07,8.06,15.12,12.07c6.49,5.15,12.92,10.56,20.29,14.48c5.55,3,11.47,5.31,17.53,7.16
	c12.03,3.45,25.03,5.01,37.36,2.28c10.74-1.26,20.83-5.55,30.15-10.92c26.87-15.71,43.07-46.87,42.7-77.74v-0.19
	C450.7,258.24,440.61,233.96,422.49,217.36z M242.65,236.6c0.01-0.03,0.01-0.07,0.02-0.1c0.35-2.3,2.71-4.38,5.03-4.25l0.05,0
	c0.02-0.03,0.03-0.07,0.05-0.1c0.12,0.06,0.24,0.11,0.36,0.16c1.32,0.24,2.82,1.23,3.9,2.17c3.35,3.07,6.77,6.14,9.93,9.42
	c0.1,0.09,0.2,0.19,0.29,0.28c0.08,0.08,0.16,0.18,0.24,0.26c0.07,0.08,0.15,0.15,0.22,0.23c0.92,1,1.39,2.06,1.53,3.08
	c0.01,0.05,0.01,0.11,0.02,0.16c0.02,0.18,0.03,0.35,0.03,0.53c0,0.09-0.01,0.18-0.02,0.27c-0.26,3.58-4.63,6.21-8.36,2.98
	c-3.76-3.59-7.82-6.95-11.22-10.84c-0.34-0.36-0.68-0.71-1-1.08c-0.8-0.92-1.21-1.93-1.08-3.03
	C242.64,236.7,242.65,236.65,242.65,236.6z M206.28,217.69c0.29-0.69,0.79-1.26,1.42-1.69c0.71-0.55,1.61-0.88,2.66-0.86
	c0.03,0,0.05,0,0.08,0.01c0.27,0,0.55,0.01,0.83,0.05c0.08,0.01,0.15,0.02,0.23,0.04c4.5,0.4,8.82,1.8,13.15,3.03
	c0.88,0.22,1.78,0.55,2.59,1c1.35,0.66,2.24,1.54,2.71,2.67c0.06,0.12,0.1,0.24,0.15,0.36c0.01,0.02,0.02,0.04,0.02,0.06
	c0.2,0.56,0.3,1.17,0.27,1.83l0,0.18c0,0.13-0.02,0.25-0.03,0.38c0,0.06-0.01,0.12-0.01,0.18c-0.01,0.12-0.02,0.24-0.04,0.35
	c-0.02,0.12-0.05,0.23-0.08,0.34c-0.24,1-0.76,1.72-1.45,2.2c-0.9,0.67-2.15,0.97-3.64,0.69c-0.92-0.11-1.87-0.38-2.76-0.77
	c-3.7-1.26-7.42-2.25-11.32-2.79c-0.32-0.05-0.65-0.11-0.98-0.19C206.71,224.25,204.92,220.86,206.28,217.69z M164.58,227.97
	c0.01-0.13,0.03-0.26,0.05-0.38c0.16-0.98,0.62-1.9,1.44-2.55c0.1-0.08,0.21-0.16,0.32-0.24c0.73-0.64,1.58-1.19,2.4-1.69
	c4.53-2.41,9.51-4.16,14.31-5.84c2.38-0.72,5.4-1.49,7.54,0.18c0.64,0.47,1.06,1.16,1.31,1.93c0.05,0.15,0.1,0.29,0.14,0.45
	c0.01,0.07,0.03,0.13,0.04,0.2c0.15,0.77,0.13,1.6-0.12,2.46c-0.41,1.4-1.4,2.41-2.79,2.91c-0.06,0.02-0.13,0.04-0.2,0.07
	c-1.17,0.53-2.47,0.87-3.66,1.31c-5.14,1.41-9.64,4.63-14.66,6.19c-0.46,0.16-0.91,0.32-1.36,0.48c-0.18-0.02-0.35-0.06-0.53-0.1
	c-2.27-0.21-4.01-2.34-4.22-4.54c0-0.01,0-0.02,0-0.02c-0.02-0.21-0.02-0.42-0.02-0.62C164.57,228.09,164.57,228.03,164.58,227.97z
	 M153.75,317.59c-0.03,0.06-0.06,0.12-0.09,0.19c-0.04,0.07-0.07,0.14-0.11,0.2c-0.11,0.18-0.23,0.35-0.37,0.52
	c-0.75,0.91-1.66,1.42-2.61,1.63c0,0,0,0,0,0c-0.16,0.04-0.33,0.06-0.49,0.08c-1.3,0.17-2.69-0.17-3.67-0.96
	c-0.14-0.11-0.26-0.24-0.39-0.35c-0.65-0.52-1.21-1.17-1.63-1.92c-0.03-0.05-0.06-0.11-0.09-0.16c-0.35-0.55-0.67-1.13-0.95-1.72
	c-1.6-2.99-2.92-6.11-4.01-9.31c-0.33-0.89-0.64-1.78-0.91-2.68c-0.32-1.05-0.57-2.12-0.8-3.2c-0.98-4-1.63-8.09-1.98-12.2
	l-0.01-0.19c-0.1-0.92,0.03-1.76,0.33-2.49c0.27-0.83,0.77-1.57,1.68-2.17c0.58-0.38,1.28-0.59,2.01-0.64
	c0.58-0.06,1.18-0.01,1.78,0.17c1.36,0.36,2.57,1.22,3,2.45c0.07,0.21,0.13,0.42,0.2,0.63c0.53,1.41,0.68,3.03,0.97,4.47
	c1.12,7.46,3.47,14.55,6.85,21.29c0.53,1.12,1.19,2.42,1.47,3.71C154.18,315.93,154.13,316.81,153.75,317.59z M155.69,248.41
	c-2.59,4.86-5.18,9.66-7.75,14.54c-0.18,0.35-0.39,0.7-0.61,1.04c-1.05,1.75-2.41,3.02-4.74,2.96c-0.24-0.01-0.48-0.04-0.72-0.08
	c-0.15-0.02-0.29-0.06-0.43-0.09c-0.01,0-0.02-0.01-0.03-0.01c-1.94-0.54-3.51-2.33-3.52-4.36c-0.02-0.47,0.06-0.95,0.21-1.43
	c0.37-1.41,1.12-2.73,1.72-4.05c2.25-4.4,4.41-8.86,7.1-12.97c0.11-0.18,0.22-0.37,0.33-0.55c0.73-1.17,1.79-2.01,3.15-2.29
	c0.76-0.2,1.53-0.21,2.26-0.06c1.01,0.15,1.9,0.59,2.6,1.5C156.51,243.93,156.95,246.06,155.69,248.41z M188.65,347.97
	c-0.57,1.17-1.67,2.08-3.36,2.35c-0.1,0.04-0.21,0.08-0.3,0.12c-0.15-0.04-0.28-0.07-0.42-0.1c-2.62-0.15-5-1.72-7.37-2.77
	c-4.34-2.16-8.8-4.19-12.66-7.11c-0.71-0.55-1.45-1.21-2.09-1.96c-0.02-0.02-0.05-0.05-0.07-0.07c-0.06-0.06-0.1-0.13-0.15-0.19
	c-0.05-0.06-0.1-0.12-0.14-0.18c-0.76-0.96-1.16-1.97-1.18-2.96c0-0.02-0.01-0.03-0.01-0.05c-0.12-3.79,4.62-5.78,7.67-3.85
	c5.74,3.34,11.28,7.04,17.34,9.89c0.09,0.04,0.19,0.09,0.28,0.13C188.5,342.25,189.96,345.52,188.65,347.97z M203.64,323
	c-18.34,0.46-33.35-11.75-38.02-29.2c-3.44-14.08,0.74-28.19,9.75-37.76c0.04-0.04,0.08-0.08,0.12-0.12
	c4.82-5.08,11.02-8.86,18.17-10.65c0.08-0.03,0.17-0.05,0.25-0.08c0.85-0.27,1.75-0.41,2.65-0.52c2.12-0.36,4.31-0.56,6.57-0.55
	c8.11-0.16,16.32,2.52,22.88,7.34c4.59,3.31,8.14,7.51,10.54,12.64c0.01,0.03,0.02,0.05,0.04,0.08c0.57,1.23,1.08,2.5,1.52,3.83
	c0.68,2.06,1.05,4.23,1.39,6.4c0.15,0.78,0.31,1.57,0.51,2.35c1.35,5.67,7.4,8.15,12.39,5.64c0.79-0.42,1.54-0.89,2.28-1.39
	c6.3-4.78,12.56-9.6,18.79-14.48c8.15-6.39,16.26-12.84,24.37-19.29c0.47-0.38,0.95-0.76,1.43-1.14l16.65-13.3
	c0.45-0.42,0.94-0.82,1.47-1.17c0.19-0.15,0.38-0.3,0.57-0.46c1.34-1.08,2.74-1.16,4.19-0.78c0.07,0.01,0.14,0.03,0.22,0.05
	c0.01,0,0.02,0.01,0.03,0.01c0.18,0.05,0.36,0.11,0.54,0.18c0.04,0.01,0.07,0.02,0.11,0.04c0.6,0.22,1.2,0.67,1.73,1.25
	c0.45,0.46,0.84,1.01,1.14,1.61c0.71,1.36,1.01,2.91,0.46,4.09c-0.31,0.66-0.77,1.33-1.33,1.78c-0.28,0.22-0.56,0.43-0.84,0.65
	c-0.74,0.63-1.55,1.2-2.28,1.8c-6.23,4.72-12.2,9.87-18.29,14.8c-11.35,9.06-22.66,18-33.91,27.33
	c-7.64,6.43-15.62,12.54-23.32,18.86c-5.6,4.56-10.78,8.81-16.25,12.23c-0.12,0.08-0.24,0.15-0.36,0.23
	c-0.38,0.24-0.77,0.46-1.15,0.69c-0.54,0.32-1.08,0.64-1.63,0.94c-0.25,0.14-0.5,0.26-0.75,0.39c-0.5,0.26-0.99,0.54-1.5,0.78
	c-0.05,0.02-0.09,0.04-0.14,0.06c-6.06,2.97-12.71,4.8-20.8,4.84L203.64,323z M230.15,346.4c-0.49,1-1.38,1.77-2.8,2.35
	c-0.09,0.04-0.18,0.08-0.27,0.12c-0.03,0.01-0.05,0.02-0.08,0.03c-0.82,0.34-1.68,0.58-2.51,0.76c-4.16,1-8.32,1.8-12.5,2.54
	c-1.33,0.38-2.51,0.43-3.51,0.25c-2.42-0.36-4.12-2.33-3.92-4.81c0-0.06,0.01-0.11,0.02-0.17c0.01-0.12,0.03-0.24,0.05-0.36
	c0-0.03,0.01-0.05,0.02-0.08c0.03-0.15,0.06-0.3,0.1-0.45c0.47-1.61,1.7-2.73,3.37-3.29c0.49-0.19,1.02-0.35,1.61-0.46
	c4.71-1.09,9.4-2.34,14.1-3.36c0.82-0.23,1.69-0.27,2.52-0.15c0.69,0.06,1.38,0.25,2.05,0.63c1,0.57,1.69,1.3,2.02,2.35
	c0.17,0.48,0.27,1,0.25,1.58l0,0.19C230.71,344.97,230.51,345.74,230.15,346.4z M391.83,344.74c-0.24,1.13-0.86,2.09-1.92,2.6
	c-0.17,0.08-0.35,0.15-0.52,0.23c-4.3,2.58-12.69,3.45-16.46,4.15l-0.19,0.02c-6.7,0.65-13.34,0.5-19.8-0.5
	c-0.2-0.03-0.4-0.06-0.6-0.09c-0.11-0.02-0.22-0.04-0.34-0.06c-3.17-0.49-6.27-1.25-9.33-2.23c-0.32-0.1-0.63-0.2-0.95-0.31
	c-0.29-0.1-0.59-0.2-0.88-0.3c-6.99-2.4-13.63-5.94-19.69-10.74c-1.79-1.38-3.44-2.84-5.1-4.36c-0.22-0.21-0.45-0.43-0.67-0.66
	c-0.06-0.06-0.13-0.11-0.19-0.17c-1.04-0.93-1.46-2-1.41-3.17c-0.04-1.44,0.61-2.8,1.61-3.76c0.02-0.02,0.05-0.04,0.08-0.07
	c0.12-0.11,0.23-0.21,0.35-0.31c0.16-0.12,0.32-0.23,0.49-0.33c0.01-0.01,0.02-0.01,0.03-0.02c0.17-0.1,0.35-0.19,0.53-0.27
	c0.03-0.01,0.05-0.02,0.08-0.03c0.18-0.07,0.38-0.14,0.57-0.19c0.01,0,0.02-0.01,0.03-0.01c0.34-0.09,0.7-0.16,1.08-0.19
	c0.89-0.06,1.96,0.46,2.73,1.01c0.34,0.24,0.67,0.49,1,0.73c2.96,2.02,5.75,4.29,8.68,6.35c0.37,0.26,0.74,0.52,1.12,0.77
	c0.52,0.35,1.05,0.69,1.59,1.02c6.1,3.94,12.98,6.47,20.1,7.76c1.8,0.3,3.6,0.55,5.41,0.73c0.11,0.01,0.22,0.02,0.33,0.03
	c0.25,0.02,0.51,0.04,0.77,0.06c1.96,0.15,3.92,0.21,5.87,0.18c0.13,0,0.25-0.01,0.38-0.01c0.42-0.01,0.84-0.03,1.27-0.05
	c0.58-0.03,1.17-0.07,1.75-0.13c1.51-0.14,3.03-0.32,4.53-0.54c2.6-0.43,5.16-1.02,7.71-1.73c0.55-0.18,1.09-0.37,1.63-0.58
	c1.03-0.4,2.13-0.68,3.23-0.85c2.07-0.32,4.13,0.94,4.81,2.79c0.02,0.06,0.03,0.11,0.05,0.17
	C391.99,342.62,392.09,343.68,391.83,344.74z M401.15,292.62c-4.41,18.14-19.49,31.39-38.59,30.21c-8.13-0.35-16.25-3.15-22.77-8.03
	c-0.14-0.11-0.28-0.21-0.42-0.32c-0.32-0.25-0.65-0.49-0.96-0.75c-0.6-0.49-1.18-1.01-1.75-1.54c-0.02-0.02-0.04-0.04-0.06-0.06
	c-3.51-3.29-6.3-7.29-8.25-12.08c-0.66-1.63-1.03-3.38-1.4-5.12c-0.29-1.23-0.57-2.46-0.94-3.66c-1.67-6.01-7.16-8.28-12.01-5.44
	c-0.32,0.21-0.63,0.44-0.94,0.69c-5.88,4.73-11.7,9.54-17.58,14.28c-0.67,0.54-1.35,1.07-2.02,1.61c-5.58,4.51-11.18,9-16.84,13.42
	c-7.08,5.49-14.09,11.09-21.09,16.68c-1.41,1.05-2.75,2.26-4.27,3.12c-0.17,0.12-0.34,0.24-0.51,0.35c-2.28,1.5-6.12,0.05-6.91-2.57
	c-0.08-0.25-0.14-0.49-0.21-0.71c-0.13-0.4-0.23-0.81-0.28-1.22c-0.39-2.29,0.35-3.42,2.79-5.38c4.99-3.99,9.94-8.04,14.94-12.02
	c1.2-0.95,2.42-1.88,3.64-2.81c7.31-5.91,14.59-11.85,21.89-17.76c3.07-2.51,6.15-5.01,9.25-7.5c0.5-0.4,1.01-0.79,1.51-1.19
	c3.77-3.04,7.55-6.06,11.35-9.06c7.65-6.18,15.18-12.57,23.06-18.49c9.37-7.9,19.32-12.98,31.68-13.4l0.18,0
	c18.74,0.07,34.82,13.84,37.83,32.03C402,281.44,402.44,287.19,401.15,292.62z M399.08,236.94c-0.22-0.18-0.45-0.36-0.68-0.54
	c-2.75-1.98-5.54-3.92-8.51-5.53c-0.21-0.11-0.41-0.22-0.61-0.32c-0.16-0.09-0.33-0.16-0.5-0.25c-1.11-0.54-2.23-1.04-3.39-1.5
	c-0.11-0.04-0.21-0.09-0.32-0.13c-0.24-0.11-0.49-0.21-0.73-0.32c-0.12-0.05-0.24-0.1-0.37-0.16c-2.07-0.89-4.21-1.61-6.39-2.18
	c-1.62-0.36-3.25-0.68-4.86-1.08c-1.45-0.26-2.91-0.49-4.37-0.69c-1.37-0.1-2.73-0.11-4.08-0.06c-0.34,0.01-0.69,0.03-1.03,0.05
	c-1.9,0.11-3.79,0.33-5.67,0.59c-2.45,0.36-4.9,0.83-7.35,1.28c-1.21,0.25-2.43,0.49-3.64,0.71c-1.24,0.22-2.53,0.51-3.76,0.36
	c-2.08-0.24-3.36-1.61-3.56-3.45c-0.18-1.16,0.11-2.47,0.95-3.68c0.01-0.01,0.02-0.03,0.03-0.04c0.05-0.06,0.08-0.13,0.13-0.19
	c0.08-0.11,0.18-0.21,0.27-0.31c0.02-0.02,0.04-0.04,0.06-0.07c0.09-0.09,0.19-0.18,0.28-0.26c0.48-0.44,1.05-0.78,1.68-1.02
	c0.61-0.26,1.25-0.45,1.89-0.61c4.33-0.97,8.72-1.89,13.13-2.4c0.38-0.06,0.76-0.12,1.14-0.18c0,0.01,0,0.03,0.01,0.04l0.11-0.01
	c4.75-0.45,9.53-0.4,14.24,0.22c0.08,0.01,0.16,0.02,0.24,0.03c0.72,0.1,1.44,0.2,2.16,0.33c0.48,0.08,0.96,0.18,1.44,0.28
	c2.45,0.5,4.88,1.15,7.24,2.01c2.72,0.77,5.33,1.78,7.85,2.98c0.14,0.06,0.28,0.12,0.42,0.19c0.11,0.05,0.21,0.11,0.32,0.16
	c0.28,0.14,0.56,0.28,0.84,0.42c0.81,0.41,1.61,0.84,2.39,1.3c0.05,0.03,0.1,0.06,0.15,0.09c0.46,0.28,0.92,0.56,1.37,0.86
	c3.2,2,6.22,4.3,9.03,6.87c0.59,0.53,1.19,1.15,1.69,1.82c0.03,0.03,0.06,0.07,0.08,0.1c0.68,0.85,1.03,1.77,1.09,2.68
	c0,0.02,0,0.04,0.01,0.06c0.01,0.17,0,0.34-0.01,0.52c-0.01,0.09,0,0.17-0.01,0.26c-0.14,1.18-0.72,2.12-1.54,2.77
	c-0.01,0.01-0.02,0.01-0.02,0.02c-0.11,0.09-0.22,0.17-0.34,0.24c-1.38,0.97-3.28,1.15-4.85,0.26
	C401.43,238.74,400.22,237.87,399.08,236.94z M426.27,307.74c-0.28,2.05-1.16,4.09-2.01,5.99c-2.72,5.78-6.05,11.24-9.86,16.36
	c-0.34,0.47-0.71,0.95-1.12,1.4c-0.35,0.41-0.72,0.81-1.13,1.14c-1.11,0.91-2.5,1.24-3.83,1.08c-1.76-0.18-3.04-1.14-3.7-2.43
	c-0.03-0.05-0.06-0.1-0.09-0.15c-0.53-1.03-0.58-2.12-0.25-3.16c0.19-0.73,0.55-1.45,1.1-2.13c4.18-5.86,8.05-11.94,10.85-18.64
	c0.19-0.44,0.39-0.89,0.6-1.33c0.06-0.14,0.12-0.28,0.18-0.42c0.77-1.82,1.95-2.84,3.55-3.17c0.44-0.11,0.9-0.15,1.34-0.12
	c0,0,0.01,0,0.01,0c0.02,0,0.04,0.01,0.05,0.01c0.19,0.01,0.38,0.03,0.56,0.07c0.93,0.15,1.75,0.57,2.38,1.23
	c0.03,0.03,0.06,0.05,0.09,0.08c0.04,0.05,0.08,0.09,0.12,0.14c0.78,0.86,1.26,2.03,1.19,3.45l-0.01,0.18c0,0.01,0,0.02,0,0.02
	c0,0.06,0.01,0.1,0.01,0.16C426.32,307.59,426.29,307.66,426.27,307.74z M430.3,282.43c0.02,1.01-0.32,1.92-0.86,2.67
	c-0.39,0.6-0.92,1.07-1.53,1.4c-0.63,0.38-1.32,0.61-1.97,0.64c-3.47,0.18-5.1-2.27-5.24-4.53c0-0.02,0-0.04,0-0.06
	c-0.25-1.67-0.09-3.48-0.24-5.13c-0.09-6.8-2.3-13.34-4.9-19.55c-0.36-0.7-0.6-1.41-0.72-2.12c-0.37-1.5-0.1-2.89,0.73-3.98
	c0.59-0.88,1.48-1.52,2.64-1.78c0.06-0.02,0.13-0.03,0.19-0.05c0.1-0.02,0.2-0.03,0.3-0.04c0.45-0.07,0.91-0.08,1.39-0.01
	c0.04,0,0.07,0,0.11,0.01c0.09,0.01,0.19,0.05,0.28,0.07c1.25,0.27,2.48,1.01,3.28,2.42c0.13,0.22,0.24,0.44,0.36,0.67
	c2.86,4.37,4.75,12.4,5.63,18.62c0.13,0.73,0.26,1.47,0.35,2.21c0.08,0.6,0.09,1.21,0.1,1.83c0.1,1.27,0.13,2.35,0.1,3.15l0.01,0.17
	C430.31,280.06,430.42,281.26,430.3,282.43z"/>
</svg>
